<svg width="48" height="48" viewBox="0 0 48 48" fill="none" xmlns="http://www.w3.org/2000/svg">
<rect x="0.5" y="0.5" width="47" height="47" rx="23.5" stroke="#E0E0E0"/>
<path d="M22.1673 29.4999C23.8595 29.4999 25.4151 28.9178 26.6562 27.9526L30.0378 31.3342C30.3957 31.6921 30.9761 31.6921 31.334 31.3342C31.6919 30.9762 31.6919 30.3959 31.334 30.038L27.9524 26.6564C28.9186 25.4143 29.5007 23.8588 29.5007 22.1666C29.5007 18.1232 26.2107 14.8333 22.1673 14.8333C18.1239 14.8333 14.834 18.1232 14.834 22.1666C14.834 26.21 18.1239 29.4999 22.1673 29.4999ZM22.1673 16.6666C25.2006 16.6666 27.6673 19.1333 27.6673 22.1666C27.6673 25.1998 25.2006 27.6666 22.1673 27.6666C19.1341 27.6666 16.6673 25.1998 16.6673 22.1666C16.6673 19.1333 19.1341 16.6666 22.1673 16.6666Z" fill="#373737"/>
<rect x="13" y="13" width="22" height="22" rx="8" stroke="#E0E0E0" stroke-width="22" mask="url(#path-2-inside-1)"/>
</svg>
